<svg width="16" height="23" viewBox="0 0 16 23" fill="none" xmlns="http://www.w3.org/2000/svg">
<path fill-rule="evenodd" clip-rule="evenodd" d="M12.4518 1.00247C13.3039 1.85447 13.304 3.23592 12.452 4.08803L7.44879 9.09189H13.0953C13.9779 9.09189 14.7735 9.62359 15.1112 10.439C15.4488 11.2544 15.262 12.193 14.6377 12.8169L5.90609 21.5441C5.05383 22.396 3.67238 22.3956 2.82054 21.5434C1.9687 20.6911 1.96904 19.3097 2.82131 18.4578L7.8261 13.4555H2.18188C1.29944 13.4555 0.503891 12.924 0.166171 12.1087C-0.171549 11.2935 0.015068 10.355 0.639007 9.73102L9.36628 1.00266C10.2183 0.150555 11.5997 0.150469 12.4518 1.00247Z" fill="#f5e1c2"/>
</svg>
