<svg width="52" height="40" viewBox="0 0 36 41" fill="none" xmlns="http://www.w3.org/2000/svg">
<path d="M27.5091 0.45459H32.9091C33.4878 0.45459 34.0427 0.684459 34.4519 1.09363C34.861 1.5028 35.0909 2.05775 35.0909 2.63641V38.6364C35.0909 39.2151 34.861 39.77 34.4519 40.1792C34.0427 40.5884 33.4878 40.8182 32.9091 40.8182H2.36364C1.78499 40.8182 1.23003 40.5884 0.820864 40.1792C0.411694 39.77 0.181824 39.2151 0.181824 38.6364V2.63641C0.181824 2.05775 0.411694 1.5028 0.820864 1.09363C1.23003 0.684459 1.78499 0.45459 2.36364 0.45459H10V3.72732H25.2727V0.45459H27.5091Z" fill="#FF8100"/>
</svg>
