<svg width="51" height="50" viewBox="0 0 51 50" fill="none" xmlns="http://www.w3.org/2000/svg">
<g clip-path="url(#clip0_14_2457)">
<path d="M50.25 37.5833C50.1667 17.25 32.9167 0.0833333 12.5833 0L0.25 50L50.25 37.5833Z" fill="#F6DA77"/>
<path d="M43.75 39.1667L45.5 38.8333C44.6666 23 33.3333 6.41667 11.3333 4.75L11.0833 6.41667C27.9166 8.58333 41.6666 22.25 43.75 39.1667Z" fill="#860D16"/>
<path d="M45.4167 38.8333L50.1667 37.6667C50.25 17.3333 32.9167 0 12.4167 0L11.25 4.75C30.8333 6.58333 43.5833 19.4167 45.4167 38.8333Z" fill="#C98E52"/>
<path d="M9.58335 33.0833C8.16669 33.0833 6.91669 32.5833 5.91669 31.5833C5.50002 31.1666 5.50002 30.5 5.91669 30.1666C6.33335 29.75 7.00002 29.75 7.33335 30.1666C8.50002 31.3333 10.5834 31.3333 11.75 30.1666C12.3334 29.5833 12.6667 28.8333 12.6667 28C12.6667 27.1666 12.3334 26.4166 11.75 25.8333C11.3334 25.4166 11.3334 24.75 11.75 24.4166C12.1667 24 12.8334 24 13.1667 24.4166C14.1667 25.4166 14.6667 26.6666 14.6667 28.0833C14.6667 29.5 14.1667 30.75 13.1667 31.75C12.25 32.5 10.9167 33.0833 9.58335 33.0833ZM30.5 16.5833V17C30.4167 17.25 30.3334 17.4166 30.0834 17.5833C29.8334 17.75 29.5834 17.75 29.4167 17.6666C28.75 17.5 28.0834 17.6666 27.5 18C26.9167 18.3333 26.5 18.9166 26.3334 19.5833C26 20.9166 26.9167 22.3333 28.25 22.6666C28.75 22.75 29.0834 23.3333 28.9167 23.75C28.8334 24.25 28.3334 24.5833 27.8334 24.4166C26.1667 24 24.9167 22.75 24.5 21.0833C24.3334 20.4166 24.3334 19.75 24.5 19.1666C24.75 18 25.5 17.0833 26.5 16.4166C27.5 15.75 28.6667 15.5833 29.8334 15.8333C30.0834 16 30.4167 16.25 30.5 16.5833ZM34.9167 40.75H34.5C34.25 40.6666 34.0834 40.5833 34 40.3333C33.9167 40.1666 33.8334 39.9166 33.9167 39.6666C34.0834 39.0833 34 38.4166 33.6667 37.8333C33.3334 37.25 32.8334 36.8333 32.1667 36.6666C30.9167 36.3333 29.5 37.1666 29.1667 38.3333C29.0834 38.75 28.5 39.0833 28.0834 38.9166C27.5834 38.75 27.3334 38.3333 27.5 37.8333C27.9167 36.3333 29.1667 35.0833 30.75 34.8333C31.3334 34.75 32 34.75 32.5834 34.9166C33.6667 35.1666 34.5834 35.9166 35.0834 36.8333C35.6667 37.8333 35.75 38.9166 35.5 40C35.5 40.4166 35.25 40.6666 34.9167 40.75Z" fill="#83BF4F"/>
<path d="M29.25 28.5C30.4167 31.9166 28.5834 35.5833 25.0834 36.75C21.5834 37.9166 17.8334 36.0833 16.75 32.6666C15.5834 29.25 17.4167 25.5833 20.9167 24.4166C24.3334 23.25 28.0834 25.0833 29.25 28.5ZM39.6667 29.1666C40.3334 31.25 39.25 33.4166 37.1667 34.1666C35.0834 34.8333 32.8334 33.75 32.1667 31.6666C31.5 29.5833 32.5834 27.4166 34.6667 26.6666C36.6667 26 38.9167 27.0833 39.6667 29.1666ZM22.5 14.1666C23.4167 16.9166 21.9167 20 19.0834 20.9166C16.25 21.8333 13.1667 20.3333 12.25 17.5833C11.3334 14.8333 12.8334 11.75 15.6667 10.8333C18.5 9.91664 21.5834 11.4166 22.5 14.1666ZM27 43.3333L18.9167 45.3333C18.1667 43.1666 19.6667 40.5833 21.8334 40C24.5 39.3333 26.25 41.25 27 43.3333ZM14.6667 37.5C15.6667 40.3333 14.0834 43.5 11.1667 44.4166C8.25002 45.4166 5.08335 43.8333 4.08335 40.9166C3.08335 38.0833 4.66669 34.9166 7.58335 34C10.5 33.0833 13.6667 34.6666 14.6667 37.5Z" fill="#B21725"/>
<path d="M11.25 4.75C15.6667 4.83333 20.0833 5.66667 24.25 7.33333C28.4167 8.91667 32.3333 11.4167 35.5 14.6667C38.6667 17.8333 41.1667 21.75 42.8333 25.9167C44.5 30.0833 45.3333 34.5 45.4167 38.9167C44.6667 34.5833 43.5 30.3333 41.6667 26.4167C39.8333 22.5 37.4167 18.8333 34.3333 15.8333C31.3333 12.75 27.6667 10.3333 23.75 8.58333C19.8333 6.66667 15.5833 5.5 11.25 4.75Z" fill="#E0A763"/>
<path d="M12.3283 9.53L13.9783 7.88L15.6283 9.53L13.9783 11.18L12.3283 9.53ZM23.1 14.2033L24.75 12.5533L26.4 14.2033L24.75 15.8533L23.1 14.2033ZM9.08997 20.3733L10.74 18.7233L12.39 20.3733L10.74 22.0233L9.08997 20.3733ZM14.79 25.1125L16.44 23.4625L18.09 25.1125L16.44 26.7625L14.79 25.1125ZM29.6208 25.325L31.2708 23.675L32.9208 25.325L31.2708 26.975L29.6208 25.325ZM39.1866 37.1175L40.8366 35.4675L42.4866 37.1175L40.8366 38.7675L39.1866 37.1175ZM14.6808 35.5433L16.3308 33.8933L17.9808 35.5433L16.3308 37.1933L14.6808 35.5433ZM15.8616 41.5858L17.5116 39.9358L19.1616 41.5858L17.5116 43.2358L15.8616 41.5858ZM1.9483 46.8675L3.5983 45.2175L5.2483 46.8675L3.5983 48.5175L1.9483 46.8675ZM9.97497 12.7733L11.2125 11.5358L12.45 12.7733L11.2125 14.0108L9.97497 12.7733ZM20.46 21.5775L21.6975 20.34L22.935 21.5775L21.6975 22.815L20.46 21.5775ZM31.7291 21.6292L32.9666 20.3917L34.2041 21.6292L32.9666 22.8667L31.7291 21.6292ZM9.52997 28.47L10.7675 27.2325L12.005 28.47L10.7675 29.7075L9.52997 28.47ZM4.46664 33.4167L5.70414 32.1792L6.94164 33.4158L5.70414 34.6533L4.46664 33.4167ZM2.52497 43.7375L3.76247 42.5L4.99997 43.7375L3.76247 44.975L2.52497 43.7375ZM13.23 44.405L14.4675 43.1675L15.705 44.4058L14.4675 45.6425L13.23 44.405ZM23.9816 38.6217L25.2191 37.3842L26.4566 38.6217L25.2191 39.8592L23.9816 38.6217ZM29.2016 40.7467L30.4391 39.5092L31.6766 40.7467L30.4391 41.9833L29.2016 40.7467ZM36.1466 35.975L37.3841 34.7383L38.6216 35.9758L37.3841 37.2133L36.1466 35.975Z" fill="#FFAB41"/>
</g>
<defs>
<clipPath id="clip0_14_2457">
<rect width="50.8333" height="50" fill="white"/>
</clipPath>
</defs>
</svg>
