<svg width="305" height="300" viewBox="0 0 305 300" fill="none" xmlns="http://www.w3.org/2000/svg">
<path d="M301.5 225.5C301 103.5 197.5 0.5 75.5 0L1.5 300L301.5 225.5Z" fill="#F6DA77"/>
<path d="M262.5 235L273 233C268 138 200 38.5 68 28.5L66.5 38.5C167.5 51.5 250 133.5 262.5 235Z" fill="#860D16"/>
<path d="M272.5 233L301 226C301.5 104 197.5 0 74.5 0L67.5 28.5C185 39.5 261.5 116.5 272.5 233Z" fill="#C98E52"/>
<path d="M57.5 198.5C49 198.5 41.5 195.5 35.5 189.5C33 187 33 183 35.5 181C38 178.5 42 178.5 44 181C51 188 63.5 188 70.5 181C74 177.5 76 173 76 168C76 163 74 158.5 70.5 155C68 152.5 68 148.5 70.5 146.5C73 144 77 144 79 146.5C85 152.5 88 160 88 168.5C88 177 85 184.5 79 190.5C73.5 195 65.5 198.5 57.5 198.5ZM183 99.5V102C182.5 103.5 182 104.5 180.5 105.5C179 106.5 177.5 106.5 176.5 106C172.5 105 168.5 106 165 108C161.5 110 159 113.5 158 117.5C156 125.5 161.5 134 169.5 136C172.5 136.5 174.5 140 173.5 142.5C173 145.5 170 147.5 167 146.5C157 144 149.5 136.5 147 126.5C146 122.5 146 118.5 147 115C148.5 108 153 102.5 159 98.5C165 94.5 172 93.5 179 95C180.5 96 182.5 97.5 183 99.5ZM209.5 244.5H207C205.5 244 204.5 243.5 204 242C203.5 241 203 239.5 203.5 238C204.5 234.5 204 230.5 202 227C200 223.5 197 221 193 220C185.5 218 177 223 175 230C174.5 232.5 171 234.5 168.5 233.5C165.5 232.5 164 230 165 227C167.5 218 175 210.5 184.5 209C188 208.5 192 208.5 195.5 209.5C202 211 207.5 215.5 210.5 221C214 227 214.5 233.5 213 240C213 242.5 211.5 244 209.5 244.5Z" fill="#83BF4F"/>
<path d="M175.5 171C182.5 191.5 171.5 213.5 150.5 220.5C129.5 227.5 107 216.5 100.5 196C93.5 175.5 104.5 153.5 125.5 146.5C146 139.5 168.5 150.5 175.5 171ZM238 175C242 187.5 235.5 200.5 223 205C210.5 209 197 202.5 193 190C189 177.5 195.5 164.5 208 160C220 156 233.5 162.5 238 175ZM135 84.9998C140.5 101.5 131.5 120 114.5 125.5C97.5 131 79 122 73.5 105.5C68 88.9998 77 70.4998 94 64.9998C111 59.4998 129.5 68.4998 135 84.9998ZM162 260L113.5 272C109 259 118 243.5 131 240C147 236 157.5 247.5 162 260ZM88 225C94 242 84.5 261 67 266.5C49.5 272.5 30.5 263 24.5 245.5C18.5 228.5 28 209.5 45.5 204C63 198.5 82 208 88 225Z" fill="#B21725"/>
<path d="M67.5 28.5C94 29 120.5 34 145.5 44C170.5 53.5 194 68.5 213 88C232 107 247 130.5 257 155.5C267 180.5 272 207 272.5 233.5C268 207.5 261 182 250 158.5C239 135 224.5 113 206 95C188 76.5 166 62 142.5 51.5C119 40 93.5 33 67.5 28.5Z" fill="#E0A763"/>
<path d="M73.97 57.1798L83.87 47.2798L93.77 57.1798L83.87 67.0798L73.97 57.1798ZM138.6 85.2198L148.5 75.3198L158.4 85.2198L148.5 95.1198L138.6 85.2198ZM54.54 122.24L64.44 112.34L74.34 122.24L64.44 132.14L54.54 122.24ZM88.74 150.675L98.64 140.775L108.54 150.675L98.64 160.575L88.74 150.675ZM177.725 151.95L187.625 142.05L197.525 151.95L187.625 161.85L177.725 151.95ZM235.12 222.705L245.02 212.805L254.92 222.705L245.02 232.605L235.12 222.705ZM88.085 213.26L97.985 203.36L107.885 213.26L97.985 223.16L88.085 213.26ZM95.17 249.515L105.07 239.615L114.97 249.515L105.07 259.415L95.17 249.515ZM11.69 281.205L21.59 271.305L31.49 281.205L21.59 291.105L11.69 281.205ZM59.85 76.6398L67.275 69.2148L74.7 76.6398L67.275 84.0648L59.85 76.6398ZM122.76 129.465L130.185 122.04L137.61 129.465L130.185 136.89L122.76 129.465ZM190.375 129.775L197.8 122.35L205.225 129.775L197.8 137.2L190.375 129.775ZM57.18 170.82L64.605 163.395L72.03 170.82L64.605 178.245L57.18 170.82ZM26.8 200.5L34.225 193.075L41.65 200.495L34.225 207.92L26.8 200.5ZM15.15 262.425L22.575 255L30 262.425L22.575 269.85L15.15 262.425ZM79.38 266.43L86.805 259.005L94.23 266.435L86.805 273.855L79.38 266.43ZM143.89 231.73L151.315 224.305L158.74 231.73L151.315 239.155L143.89 231.73ZM175.21 244.48L182.635 237.055L190.06 244.48L182.635 251.9L175.21 244.48ZM216.88 215.85L224.305 208.43L231.73 215.855L224.305 223.28L216.88 215.85Z" fill="#FFAB41"/>
</svg>
