<svg width="93" height="87" viewBox="0 0 93 87" fill="none" xmlns="http://www.w3.org/2000/svg">
<path fill-rule="evenodd" clip-rule="evenodd" d="M89.0769 1.40905C92.2879 3.50901 93.1879 7.80891 91.0879 11.0199L43.8668 83.2405C43.3166 84.082 42.5902 84.794 41.7379 85.3272C40.8856 85.8605 39.9277 86.2023 38.9303 86.3291C37.933 86.4559 36.92 86.3646 35.9613 86.0616C35.0027 85.7585 34.1213 85.2509 33.3781 84.5738L2.82325 56.7967C1.46036 55.5576 0.645537 53.8278 0.558022 51.9879C0.470507 50.148 1.11747 48.3487 2.3566 46.9858C3.59572 45.6229 5.32549 44.8081 7.16539 44.7206C9.00529 44.6331 10.8046 45.28 12.1675 46.5191L36.7003 68.8186L79.466 3.42012C80.474 1.8792 82.0527 0.80171 83.855 0.424582C85.6573 0.0474532 87.5356 0.401566 89.0769 1.40905Z" fill="white"/>
</svg>
