<svg width="50" height="50" viewBox="0 0 50 50" fill="none" xmlns="http://www.w3.org/2000/svg">
<path d="M45.979 46.756L35.8556 36.2576M35.8556 36.2576C37.5872 34.4618 38.9609 32.3299 39.898 29.9836C40.8352 27.6373 41.3176 25.1226 41.3176 22.5829C41.3176 20.0433 40.8352 17.5285 39.898 15.1822C38.9609 12.8359 37.5872 10.704 35.8556 8.90821C34.1239 7.11242 32.0682 5.68792 29.8057 4.71605C27.5431 3.74417 25.1182 3.24396 22.6693 3.24396C20.2203 3.24396 17.7954 3.74417 15.5329 4.71605C13.2704 5.68792 11.2146 7.11242 9.48294 8.90821C5.98571 12.535 4.02098 17.4539 4.02098 22.5829C4.02098 27.7119 5.98571 32.6309 9.48294 36.2576C12.9802 39.8844 17.7234 41.9219 22.6693 41.9219C27.6151 41.9219 32.3584 39.8844 35.8556 36.2576Z" stroke="white" stroke-width="5" stroke-linecap="round" stroke-linejoin="round"/>
</svg>
